<?xml version="1.0" standalone="no"?>
<!DOCTYPE svg PUBLIC "-//W3C//DTD SVG 20010904//EN"
 "http://www.w3.org/TR/2001/REC-SVG-20010904/DTD/svg10.dtd">
<svg version="1.0" xmlns="http://www.w3.org/2000/svg"
 width="476.000000pt" height="476.000000pt" viewBox="0 0 476.000000 476.000000"
 preserveAspectRatio="xMidYMid meet">
<metadata>
Created by potrace 1.14, written by Peter Selinger 2001-2017
</metadata>
<g transform="translate(0.000000,476.000000) scale(0.100000,-0.100000)"
fill="#000000" stroke="none">
<path d="M0 2380 l0 -2380 2380 0 2380 0 0 2380 0 2380 -2380 0 -2380 0 0
-2380z m4515 2293 c132 -45 209 -220 160 -364 -34 -98 -129 -169 -229 -169
-43 0 -53 4 -87 38 -21 21 -41 51 -45 67 -7 29 7 92 41 185 42 114 -44 182
-186 145 -192 -49 -425 -239 -600 -491 -107 -151 -614 -962 -660 -1055 -21
-42 -50 -119 -64 -171 l-26 -96 3 -849 c3 -944 -2 -881 71 -920 46 -26 446
-32 557 -9 100 21 183 64 249 128 79 78 108 126 157 260 54 149 92 217 133
242 18 10 34 16 37 13 3 -2 -15 -179 -38 -393 l-43 -389 -985 -3 c-541 -1
-988 2 -992 6 -5 5 -4 21 1 35 10 26 14 27 83 27 105 0 171 32 201 97 22 47
22 57 25 552 l3 504 74 126 c40 69 166 288 280 486 225 390 301 516 516 845
77 118 165 260 196 315 179 322 344 523 547 667 93 66 252 143 346 167 94 25
210 27 275 4z m-2841 -823 c45 -102 170 -386 440 -998 124 -282 226 -518 226
-524 0 -14 -239 -436 -356 -629 -46 -75 -158 -255 -250 -400 -92 -145 -216
-345 -276 -444 -130 -214 -193 -300 -308 -419 -211 -219 -492 -366 -699 -366
-81 0 -123 11 -182 48 -87 56 -140 208 -110 318 47 174 289 249 354 111 23
-49 21 -79 -13 -175 -33 -94 -31 -128 7 -166 87 -88 332 10 555 222 124 119
221 252 469 647 117 187 234 374 260 415 152 239 183 305 177 364 -5 37 -148
394 -171 424 -7 9 -99 12 -397 12 l-387 0 -48 -107 c-69 -155 -95 -231 -95
-288 0 -105 63 -162 192 -172 82 -6 98 -15 98 -49 l0 -24 -370 0 c-350 0 -370
1 -370 18 0 31 22 50 84 73 119 44 177 126 331 469 53 118 106 235 117 260 38
81 290 643 323 720 18 41 49 111 70 155 20 44 82 181 137 305 125 281 126 282
144 278 8 -2 30 -37 48 -78z"/>
<path d="M1238 2792 c-92 -207 -166 -377 -164 -379 1 -2 152 -2 334 -1 l330 3
-160 370 c-88 204 -163 373 -166 377 -4 3 -82 -163 -174 -370z"/>
</g>
</svg>
